<svg xmlns="http://www.w3.org/2000/svg" xmlns:xlink="http://www.w3.org/1999/xlink" width="1080" zoomAndPan="magnify" viewBox="0 0 810 599.999999" height="800" preserveAspectRatio="xMidYMid meet" version="1.0"><defs><clipPath id="9be8b44c0b"><path d="M 34 67 L 776 67 L 776 564.589844 L 34 564.589844 Z M 34 67 " clip-rule="nonzero"/></clipPath><clipPath id="1d6fd4c451"><path d="M 74 35.089844 L 729 35.089844 L 729 364 L 74 364 Z M 74 35.089844 " clip-rule="nonzero"/></clipPath></defs><g clip-path="url(#9be8b44c0b)"><path fill="#7497bb" d="M 419.136719 420.144531 C 414.15625 425.105469 407.441406 427.878906 400.429688 427.878906 C 393.367188 427.878906 386.652344 425.105469 381.691406 420.144531 L 36.71875 75.117188 C 35.671875 79.375 34.128906 83.449219 34.128906 88.066406 L 34.128906 511.914062 C 34.128906 541.203125 57.828125 564.917969 87.117188 564.917969 L 722.894531 564.917969 C 752.066406 564.917969 775.871094 541.207031 775.871094 511.914062 L 775.871094 88.066406 C 775.871094 80.78125 774.324219 73.839844 771.703125 67.589844 Z M 419.136719 420.144531 " fill-opacity="1" fill-rule="nonzero"/></g><g clip-path="url(#1d6fd4c451)"><path fill="#7497bb" d="M 400.429688 363.960938 L 728.1875 36.15625 C 726.34375 35.960938 724.765625 35.089844 722.894531 35.089844 L 87.117188 35.089844 C 82.503906 35.089844 78.441406 36.589844 74.183594 37.671875 Z M 400.429688 363.960938 " fill-opacity="1" fill-rule="nonzero"/></g></svg>