<svg xmlns="http://www.w3.org/2000/svg" xmlns:xlink="http://www.w3.org/1999/xlink" width="1080" zoomAndPan="magnify" viewBox="0 0 810 599.999999" height="800" preserveAspectRatio="xMidYMid meet" version="1.0"><defs><clipPath id="a1f245e975"><path d="M 21 59 L 788.996094 59 L 788.996094 574.164062 L 21 574.164062 Z M 21 59 " clip-rule="nonzero"/></clipPath><clipPath id="66b5e9909c"><path d="M 62 25.914062 L 740 25.914062 L 740 367 L 62 367 Z M 62 25.914062 " clip-rule="nonzero"/></clipPath></defs><g clip-path="url(#a1f245e975)"><path fill="#a5caf1" d="M 419.621094 424.308594 C 414.46875 429.441406 407.523438 432.308594 400.265625 432.308594 C 392.957031 432.308594 386.011719 429.4375 380.878906 424.308594 L 23.957031 67.328125 C 22.871094 71.730469 21.277344 75.949219 21.277344 80.726562 L 21.277344 519.253906 C 21.277344 549.558594 45.796875 574.09375 76.101562 574.09375 L 733.902344 574.09375 C 764.082031 574.09375 788.710938 549.5625 788.710938 519.253906 L 788.710938 80.726562 C 788.710938 73.1875 787.113281 66.007812 784.398438 59.539062 Z M 419.621094 424.308594 " fill-opacity="1" fill-rule="nonzero"/></g><g clip-path="url(#66b5e9909c)"><path fill="#a5caf1" d="M 400.265625 366.175781 L 739.375 27.019531 C 737.46875 26.816406 735.835938 25.914062 733.902344 25.914062 L 76.101562 25.914062 C 71.328125 25.914062 67.125 27.46875 62.71875 28.585938 Z M 400.265625 366.175781 " fill-opacity="1" fill-rule="nonzero"/></g></svg>