<svg xmlns="http://www.w3.org/2000/svg" xmlns:xlink="http://www.w3.org/1999/xlink" width="800" zoomAndPan="magnify" viewBox="0 0 600 599.999999" height="800" preserveAspectRatio="xMidYMid meet" version="1.0"><path fill="#853c50" d="M 421.75 416.46875 C 431.507812 439.03125 428.84375 462.554688 428.992188 485.789062 C 429.140625 508.957031 429.136719 532.121094 428.976562 555.289062 C 428.84375 572.515625 414.972656 584.003906 398.980469 580.492188 C 387.824219 578.046875 379.988281 568.332031 379.960938 556.339844 C 379.890625 523.601562 379.773438 490.859375 380.109375 458.121094 C 380.277344 441.804688 375.46875 427.648438 364.449219 415.660156 C 357.351562 407.9375 354.769531 399.136719 358.566406 389.21875 C 362.253906 379.605469 369.777344 375.140625 379.898438 373.261719 C 398.457031 369.808594 417.300781 366.832031 435.199219 361.089844 C 476.550781 347.828125 500.761719 318.296875 509.601562 276.207031 C 515.015625 250.402344 517.535156 224.339844 510.917969 198.269531 C 506.652344 181.464844 498.691406 166.46875 486.851562 153.824219 C 478.195312 144.574219 476.125 134.777344 480.410156 122.78125 C 486.792969 104.910156 487.449219 86.550781 482.746094 66.933594 C 476.304688 69.125 469.910156 70.519531 464.257812 73.382812 C 449.960938 80.628906 435.660156 87.988281 422.015625 96.367188 C 412.863281 101.984375 404.136719 103.664062 393.734375 100.972656 C 343.640625 88.007812 293.507812 88.03125 243.335938 101.035156 C 233.167969 103.671875 224.394531 102.375 215.628906 96.4375 C 198.488281 84.828125 180.460938 74.789062 160.445312 68.84375 C 158.65625 68.3125 156.816406 67.964844 154.570312 67.425781 C 150.847656 81.121094 150.550781 94.542969 153.078125 108 C 154.207031 113.984375 156.011719 119.863281 157.855469 125.679688 C 160.832031 135.046875 159.582031 143.636719 152.914062 150.84375 C 131.078125 174.433594 121.378906 202.277344 122.652344 234.253906 C 123.53125 256.367188 126.214844 278.109375 134.460938 298.835938 C 147.820312 332.429688 173.289062 352.808594 207 363.058594 C 222.832031 367.875 239.308594 370.789062 255.660156 373.59375 C 272.261719 376.441406 282.082031 386.644531 279.890625 401.683594 C 279.191406 406.484375 276.707031 411.691406 273.484375 415.339844 C 261.839844 428.542969 256.871094 443.5625 257.136719 461.105469 C 257.617188 492.691406 257.371094 524.289062 257.25 555.878906 C 257.195312 570.378906 246.8125 581.070312 233.109375 581.253906 C 219.316406 581.441406 208.65625 570.492188 208.515625 555.738281 C 208.386719 541.980469 208.488281 528.226562 208.488281 515.195312 C 195.96875 515.195312 183.949219 515.839844 172.019531 515.066406 C 143.574219 513.214844 119.882812 500.808594 100.566406 480.210938 C 91.808594 470.875 83.953125 460.6875 75.789062 450.804688 C 69.042969 442.644531 62.035156 435.40625 51.371094 431.71875 C 39.546875 427.628906 34.136719 413.570312 38.214844 401.695312 C 42.398438 389.5 55.058594 382.789062 67.617188 386.015625 C 83.835938 390.175781 96.492188 399.800781 107.203125 412.171875 C 114.96875 421.140625 122.417969 430.390625 129.75 439.714844 C 150.277344 465.828125 177.066406 471.253906 207.789062 463.902344 C 208.363281 455.730469 208.441406 447.679688 209.625 439.800781 C 210.78125 432.097656 213.070312 424.570312 214.902344 416.785156 C 206.160156 414.117188 196.976562 411.648438 188.019531 408.53125 C 122.519531 385.730469 86.957031 338.5 76.835938 271.019531 C 72.84375 244.425781 71.488281 217.710938 77.628906 191.121094 C 82.519531 169.957031 91.265625 150.578125 104.183594 133.140625 C 106.410156 130.140625 107.203125 127.480469 106.351562 123.734375 C 99.453125 93.363281 101.957031 63.691406 113.546875 34.800781 C 118.363281 22.804688 126.320312 17.984375 139.140625 17.382812 C 169.40625 15.96875 195.832031 27.585938 220.703125 42.496094 C 232.621094 49.640625 243.160156 50.929688 256.457031 48.289062 C 301.875 39.269531 347.414062 40.582031 392.652344 50.320312 C 397.871094 51.445312 401.886719 50.925781 406.5 48.101562 C 428.941406 34.359375 452.316406 22.511719 478.648438 18.335938 C 486.6875 17.0625 495.109375 17.0625 503.238281 17.796875 C 512.933594 18.675781 519.632812 24.550781 523.328125 33.65625 C 535.253906 63.058594 537.945312 93.21875 531.117188 124.265625 C 530.589844 126.664062 531.183594 130.074219 532.605469 132.023438 C 556.550781 164.835938 565.878906 201.648438 563.425781 241.851562 C 561.800781 268.550781 557.683594 294.714844 547.222656 319.53125 C 527.441406 366.472656 491.566406 395.164062 443.828125 410.242188 C 436.757812 412.472656 429.558594 414.277344 421.75 416.46875 Z M 421.75 416.46875 " fill-opacity="1" fill-rule="nonzero"/></svg>