<svg xmlns="http://www.w3.org/2000/svg" xmlns:xlink="http://www.w3.org/1999/xlink" width="1080" zoomAndPan="magnify" viewBox="0 0 810 809.999993" height="1080" preserveAspectRatio="xMidYMid meet" version="1.0"><path fill="#61263b" d="M 578.609375 571.082031 C 592.523438 603.261719 588.726562 636.800781 588.9375 669.933594 C 589.148438 702.964844 589.144531 736 588.917969 769.039062 C 588.726562 793.601562 568.945312 809.980469 546.140625 804.976562 C 530.234375 801.484375 519.058594 787.636719 519.023438 770.535156 C 518.921875 723.847656 518.753906 677.160156 519.234375 630.480469 C 519.472656 607.214844 512.617188 587.027344 496.902344 569.929688 C 486.78125 558.921875 483.097656 546.367188 488.515625 532.230469 C 493.769531 518.519531 504.5 512.15625 518.933594 509.472656 C 545.398438 504.550781 572.265625 500.308594 597.789062 492.121094 C 656.753906 473.207031 691.28125 431.097656 703.882812 371.078125 C 711.601562 334.285156 715.195312 297.117188 705.761719 259.945312 C 699.679688 235.980469 688.324219 214.601562 671.441406 196.566406 C 659.097656 183.378906 656.144531 169.40625 662.257812 152.300781 C 671.359375 126.816406 672.292969 100.640625 665.589844 72.664062 C 656.402344 75.792969 647.285156 77.777344 639.226562 81.859375 C 618.835938 92.191406 598.445312 102.6875 578.988281 114.636719 C 565.9375 122.648438 553.496094 125.039062 538.664062 121.203125 C 467.230469 102.71875 395.742188 102.746094 324.199219 121.292969 C 309.703125 125.050781 297.191406 123.203125 284.691406 114.738281 C 260.253906 98.183594 234.546875 83.867188 206 75.390625 C 203.453125 74.632812 200.828125 74.132812 197.625 73.367188 C 192.320312 92.898438 191.890625 112.039062 195.5 131.222656 C 197.105469 139.757812 199.679688 148.144531 202.3125 156.4375 C 206.550781 169.792969 204.773438 182.039062 195.265625 192.316406 C 164.125 225.957031 150.296875 265.660156 152.109375 311.253906 C 153.363281 342.785156 157.191406 373.792969 168.949219 403.347656 C 188.003906 451.25 224.320312 480.308594 272.386719 494.925781 C 294.960938 501.789062 318.457031 505.949219 341.777344 509.949219 C 365.449219 514.007812 379.453125 528.554688 376.328125 550 C 375.328125 556.847656 371.785156 564.273438 367.191406 569.476562 C 350.585938 588.300781 343.5 609.722656 343.878906 634.734375 C 344.566406 679.773438 344.21875 724.828125 344.042969 769.875 C 343.964844 790.550781 329.15625 805.800781 309.617188 806.0625 C 289.953125 806.324219 274.753906 790.714844 274.550781 769.671875 C 274.363281 750.0625 274.511719 730.445312 274.511719 711.863281 C 256.660156 711.863281 239.519531 712.785156 222.511719 711.679688 C 181.945312 709.039062 148.164062 691.351562 120.617188 661.980469 C 108.128906 648.667969 96.929688 634.136719 85.289062 620.046875 C 75.667969 608.410156 65.675781 598.089844 50.46875 592.828125 C 33.609375 586.996094 25.894531 566.953125 31.707031 550.019531 C 37.675781 532.632812 55.726562 523.0625 73.632812 527.660156 C 96.761719 533.59375 114.808594 547.316406 130.082031 564.957031 C 141.152344 577.746094 151.777344 590.933594 162.234375 604.234375 C 191.507812 641.46875 229.703125 649.203125 273.511719 638.722656 C 274.332031 627.070312 274.441406 615.59375 276.128906 604.351562 C 277.78125 593.375 281.042969 582.636719 283.65625 571.535156 C 271.191406 567.730469 258.097656 564.210938 245.324219 559.765625 C 151.925781 527.253906 101.214844 459.902344 86.78125 363.683594 C 81.089844 325.761719 79.152344 287.667969 87.914062 249.75 C 94.882812 219.570312 107.355469 191.9375 125.78125 167.074219 C 128.953125 162.792969 130.082031 159 128.867188 153.660156 C 119.03125 110.355469 122.601562 68.042969 139.132812 26.847656 C 145.996094 9.742188 157.339844 2.863281 175.625 2.011719 C 218.78125 -0.0078125 256.464844 16.558594 291.929688 37.820312 C 308.925781 48.007812 323.949219 49.847656 342.910156 46.082031 C 407.671875 33.214844 472.609375 35.085938 537.121094 48.976562 C 544.5625 50.578125 550.285156 49.839844 556.867188 45.8125 C 588.867188 26.214844 622.199219 9.320312 659.742188 3.371094 C 671.207031 1.554688 683.21875 1.550781 694.808594 2.601562 C 708.636719 3.851562 718.1875 12.226562 723.457031 25.21875 C 740.464844 67.144531 744.296875 110.148438 734.558594 154.421875 C 733.808594 157.839844 734.65625 162.699219 736.6875 165.484375 C 770.828125 212.269531 784.128906 264.761719 780.632812 322.089844 C 778.3125 360.160156 772.445312 397.46875 757.53125 432.859375 C 729.320312 499.792969 678.164062 540.707031 610.089844 562.207031 C 600.015625 565.386719 589.742188 567.960938 578.609375 571.082031 Z M 578.609375 571.082031 " fill-opacity="1" fill-rule="nonzero"/></svg>