<svg xmlns="http://www.w3.org/2000/svg" xmlns:xlink="http://www.w3.org/1999/xlink" width="47" zoomAndPan="magnify" viewBox="0 0 35.25 33.749999" height="45" preserveAspectRatio="xMidYMid meet" version="1.0"><defs><clipPath id="c611102c40"><path d="M 0 0.230469 L 9.507812 0.230469 L 9.507812 9.734375 L 0 9.734375 Z M 0 0.230469 " clip-rule="nonzero"/></clipPath><clipPath id="f0035476f2"><path d="M 0 0.230469 L 9.507812 0.230469 L 9.507812 9.734375 L 0 9.734375 Z M 0 0.230469 " clip-rule="nonzero"/></clipPath><clipPath id="fff366e4d2"><rect x="0" width="10" y="0" height="10"/></clipPath><clipPath id="034340df7a"><path d="M 12.460938 0.230469 L 21.964844 0.230469 L 21.964844 9.734375 L 12.460938 9.734375 Z M 12.460938 0.230469 " clip-rule="nonzero"/></clipPath><clipPath id="a6657eef39"><path d="M 0.460938 0.230469 L 9.964844 0.230469 L 9.964844 9.734375 L 0.460938 9.734375 Z M 0.460938 0.230469 " clip-rule="nonzero"/></clipPath><clipPath id="a9f1d1b363"><rect x="0" width="10" y="0" height="10"/></clipPath><clipPath id="b21a158cac"><path d="M 24.917969 0.230469 L 34.425781 0.230469 L 34.425781 9.734375 L 24.917969 9.734375 Z M 24.917969 0.230469 " clip-rule="nonzero"/></clipPath><clipPath id="c7a7ac9c94"><path d="M 0.917969 0.230469 L 10.425781 0.230469 L 10.425781 9.734375 L 0.917969 9.734375 Z M 0.917969 0.230469 " clip-rule="nonzero"/></clipPath><clipPath id="c023f89642"><rect x="0" width="11" y="0" height="10"/></clipPath><clipPath id="ce9ec15154"><path d="M 12.460938 11.980469 L 21.964844 11.980469 L 21.964844 21.484375 L 12.460938 21.484375 Z M 12.460938 11.980469 " clip-rule="nonzero"/></clipPath><clipPath id="50fc021333"><path d="M 0.460938 0.980469 L 9.964844 0.980469 L 9.964844 10.484375 L 0.460938 10.484375 Z M 0.460938 0.980469 " clip-rule="nonzero"/></clipPath><clipPath id="9130393dd2"><rect x="0" width="10" y="0" height="11"/></clipPath><clipPath id="334897040c"><path d="M 0 11.980469 L 9.507812 11.980469 L 9.507812 21.484375 L 0 21.484375 Z M 0 11.980469 " clip-rule="nonzero"/></clipPath><clipPath id="200105c479"><path d="M 0 0.980469 L 9.507812 0.980469 L 9.507812 10.484375 L 0 10.484375 Z M 0 0.980469 " clip-rule="nonzero"/></clipPath><clipPath id="1bf3818b13"><rect x="0" width="10" y="0" height="11"/></clipPath><clipPath id="c6ccb52706"><path d="M 0 23.6875 L 9.507812 23.6875 L 9.507812 33.195312 L 0 33.195312 Z M 0 23.6875 " clip-rule="nonzero"/></clipPath><clipPath id="52f42fd277"><path d="M 0 0.6875 L 9.507812 0.6875 L 9.507812 10.195312 L 0 10.195312 Z M 0 0.6875 " clip-rule="nonzero"/></clipPath><clipPath id="e80e9ed640"><rect x="0" width="10" y="0" height="11"/></clipPath></defs><g clip-path="url(#c611102c40)"><g transform="matrix(1, 0, 0, 1, 0, -0.000000000000003164)"><g clip-path="url(#fff366e4d2)"><g clip-path="url(#f0035476f2)"><path fill="#2c2a33" d="M 0 0.230469 L 9.507812 0.230469 L 9.507812 9.734375 L 0 9.734375 Z M 0 0.230469 " fill-opacity="1" fill-rule="nonzero"/></g></g></g></g><g clip-path="url(#034340df7a)"><g transform="matrix(1, 0, 0, 1, 12, -0.000000000000003164)"><g clip-path="url(#a9f1d1b363)"><g clip-path="url(#a6657eef39)"><path fill="#2c2a33" d="M 0.460938 0.230469 L 9.964844 0.230469 L 9.964844 9.734375 L 0.460938 9.734375 Z M 0.460938 0.230469 " fill-opacity="1" fill-rule="nonzero"/></g></g></g></g><g clip-path="url(#b21a158cac)"><g transform="matrix(1, 0, 0, 1, 24, -0.000000000000003164)"><g clip-path="url(#c023f89642)"><g clip-path="url(#c7a7ac9c94)"><path fill="#2c2a33" d="M 0.917969 0.230469 L 10.425781 0.230469 L 10.425781 9.734375 L 0.917969 9.734375 Z M 0.917969 0.230469 " fill-opacity="1" fill-rule="nonzero"/></g></g></g></g><g clip-path="url(#ce9ec15154)"><g transform="matrix(1, 0, 0, 1, 12, 11)"><g clip-path="url(#9130393dd2)"><g clip-path="url(#50fc021333)"><path fill="#2c2a33" d="M 0.460938 0.980469 L 9.964844 0.980469 L 9.964844 10.484375 L 0.460938 10.484375 Z M 0.460938 0.980469 " fill-opacity="1" fill-rule="nonzero"/></g></g></g></g><g clip-path="url(#334897040c)"><g transform="matrix(1, 0, 0, 1, 0, 11)"><g clip-path="url(#1bf3818b13)"><g clip-path="url(#200105c479)"><path fill="#2c2a33" d="M 0 0.980469 L 9.507812 0.980469 L 9.507812 10.484375 L 0 10.484375 Z M 0 0.980469 " fill-opacity="1" fill-rule="nonzero"/></g></g></g></g><g clip-path="url(#c6ccb52706)"><g transform="matrix(1, 0, 0, 1, 0, 23)"><g clip-path="url(#e80e9ed640)"><g clip-path="url(#52f42fd277)"><path fill="#2c2a33" d="M 0 0.6875 L 9.507812 0.6875 L 9.507812 10.195312 L 0 10.195312 Z M 0 0.6875 " fill-opacity="1" fill-rule="nonzero"/></g></g></g></g></svg>