<svg xmlns="http://www.w3.org/2000/svg" xmlns:xlink="http://www.w3.org/1999/xlink" width="55" zoomAndPan="magnify" viewBox="0 0 41.25 46.5" height="62" preserveAspectRatio="xMidYMid meet" version="1.0"><defs><clipPath id="4c1d02d93d"><path d="M 0 0.167969 L 14 0.167969 L 14 14 L 0 14 Z M 0 0.167969 " clip-rule="nonzero"/></clipPath><clipPath id="865def68fe"><path d="M 0 6.910156 L 6.742188 0.167969 L 13.484375 6.910156 L 6.742188 13.652344 Z M 0 6.910156 " clip-rule="nonzero"/></clipPath><clipPath id="387af17e61"><path d="M 0 0.167969 L 13.671875 0.167969 L 13.671875 13.839844 L 0 13.839844 Z M 0 0.167969 " clip-rule="nonzero"/></clipPath><clipPath id="c2293f2abc"><path d="M 0 6.910156 L 6.742188 0.167969 L 13.484375 6.910156 L 6.742188 13.652344 Z M 0 6.910156 " clip-rule="nonzero"/></clipPath><clipPath id="f38a8a4138"><rect x="0" width="14" y="0" height="14"/></clipPath><clipPath id="c1be808090"><path d="M 13 0.167969 L 27 0.167969 L 27 14 L 13 14 Z M 13 0.167969 " clip-rule="nonzero"/></clipPath><clipPath id="621a2a268f"><path d="M 13.484375 6.910156 L 20.226562 0.167969 L 26.96875 6.910156 L 20.226562 13.652344 Z M 13.484375 6.910156 " clip-rule="nonzero"/></clipPath><clipPath id="12874d67d8"><path d="M 0.4375 0.167969 L 14 0.167969 L 14 13.839844 L 0.4375 13.839844 Z M 0.4375 0.167969 " clip-rule="nonzero"/></clipPath><clipPath id="61a4cd3bb1"><path d="M 0.484375 6.910156 L 7.226562 0.167969 L 13.96875 6.910156 L 7.226562 13.652344 Z M 0.484375 6.910156 " clip-rule="nonzero"/></clipPath><clipPath id="66fe602df2"><rect x="0" width="14" y="0" height="14"/></clipPath><clipPath id="6af826be7e"><path d="M 26 0.167969 L 40.511719 0.167969 L 40.511719 14 L 26 14 Z M 26 0.167969 " clip-rule="nonzero"/></clipPath><clipPath id="c472ebb7a3"><path d="M 26.96875 6.910156 L 33.710938 0.167969 L 40.457031 6.910156 L 33.710938 13.652344 Z M 26.96875 6.910156 " clip-rule="nonzero"/></clipPath><clipPath id="5cf659ae8d"><path d="M 0.871094 0.167969 L 14.511719 0.167969 L 14.511719 13.839844 L 0.871094 13.839844 Z M 0.871094 0.167969 " clip-rule="nonzero"/></clipPath><clipPath id="8f953cd958"><path d="M 0.96875 6.910156 L 7.710938 0.167969 L 14.457031 6.910156 L 7.710938 13.652344 Z M 0.96875 6.910156 " clip-rule="nonzero"/></clipPath><clipPath id="82f711ef86"><rect x="0" width="15" y="0" height="14"/></clipPath><clipPath id="133b5237c4"><path d="M 0 16 L 14 16 L 14 30 L 0 30 Z M 0 16 " clip-rule="nonzero"/></clipPath><clipPath id="0a5f5f20df"><path d="M 0 22.863281 L 6.742188 16.121094 L 13.484375 22.863281 L 6.742188 29.605469 Z M 0 22.863281 " clip-rule="nonzero"/></clipPath><clipPath id="04577b6107"><path d="M 0 0 L 13.671875 0 L 13.671875 13.632812 L 0 13.632812 Z M 0 0 " clip-rule="nonzero"/></clipPath><clipPath id="e0038a674c"><path d="M 0 6.863281 L 6.742188 0.121094 L 13.484375 6.863281 L 6.742188 13.605469 Z M 0 6.863281 " clip-rule="nonzero"/></clipPath><clipPath id="1cff374822"><rect x="0" width="14" y="0" height="14"/></clipPath><clipPath id="2ab2d69348"><path d="M 13 16 L 27 16 L 27 30 L 13 30 Z M 13 16 " clip-rule="nonzero"/></clipPath><clipPath id="57fc46d9ef"><path d="M 13.484375 22.863281 L 20.226562 16.121094 L 26.96875 22.863281 L 20.226562 29.605469 Z M 13.484375 22.863281 " clip-rule="nonzero"/></clipPath><clipPath id="3252904b82"><path d="M 0.4375 0 L 14 0 L 14 13.632812 L 0.4375 13.632812 Z M 0.4375 0 " clip-rule="nonzero"/></clipPath><clipPath id="54af87862f"><path d="M 0.484375 6.863281 L 7.226562 0.121094 L 13.96875 6.863281 L 7.226562 13.605469 Z M 0.484375 6.863281 " clip-rule="nonzero"/></clipPath><clipPath id="0a60f85a3d"><rect x="0" width="14" y="0" height="14"/></clipPath><clipPath id="e269372700"><path d="M 0 31 L 14 31 L 14 45.839844 L 0 45.839844 Z M 0 31 " clip-rule="nonzero"/></clipPath><clipPath id="4beb11aa25"><path d="M 0 38.554688 L 6.742188 31.8125 L 13.484375 38.554688 L 6.742188 45.296875 Z M 0 38.554688 " clip-rule="nonzero"/></clipPath><clipPath id="5d06696217"><path d="M 0 0.753906 L 13.671875 0.753906 L 13.671875 14.425781 L 0 14.425781 Z M 0 0.753906 " clip-rule="nonzero"/></clipPath><clipPath id="f1ade519ca"><path d="M 0 7.554688 L 6.742188 0.8125 L 13.484375 7.554688 L 6.742188 14.296875 Z M 0 7.554688 " clip-rule="nonzero"/></clipPath><clipPath id="1b907400b1"><rect x="0" width="14" y="0" height="15"/></clipPath></defs><g clip-path="url(#4c1d02d93d)"><g clip-path="url(#865def68fe)"><g transform="matrix(1, 0, 0, 1, 0, -0.000000000000008132)"><g clip-path="url(#f38a8a4138)"><g clip-path="url(#387af17e61)"><g clip-path="url(#c2293f2abc)"><path fill="#2c2a33" d="M 0 6.910156 L 6.742188 0.167969 L 13.484375 6.910156 L 6.742188 13.652344 Z M 0 6.910156 " fill-opacity="1" fill-rule="nonzero"/></g></g></g></g></g></g><g clip-path="url(#c1be808090)"><g clip-path="url(#621a2a268f)"><g transform="matrix(1, 0, 0, 1, 13, -0.000000000000008132)"><g clip-path="url(#66fe602df2)"><g clip-path="url(#12874d67d8)"><g clip-path="url(#61a4cd3bb1)"><path fill="#2c2a33" d="M 0.484375 6.910156 L 7.226562 0.167969 L 13.96875 6.910156 L 7.226562 13.652344 Z M 0.484375 6.910156 " fill-opacity="1" fill-rule="nonzero"/></g></g></g></g></g></g><g clip-path="url(#6af826be7e)"><g clip-path="url(#c472ebb7a3)"><g transform="matrix(1, 0, 0, 1, 26, -0.000000000000008132)"><g clip-path="url(#82f711ef86)"><g clip-path="url(#5cf659ae8d)"><g clip-path="url(#8f953cd958)"><path fill="#2c2a33" d="M 0.96875 6.910156 L 7.710938 0.167969 L 14.457031 6.910156 L 7.710938 13.652344 Z M 0.96875 6.910156 " fill-opacity="1" fill-rule="nonzero"/></g></g></g></g></g></g><g clip-path="url(#133b5237c4)"><g clip-path="url(#0a5f5f20df)"><g transform="matrix(1, 0, 0, 1, 0, 16)"><g clip-path="url(#1cff374822)"><g clip-path="url(#04577b6107)"><g clip-path="url(#e0038a674c)"><path fill="#2c2a33" d="M 0 6.863281 L 6.742188 0.121094 L 13.484375 6.863281 L 6.742188 13.605469 Z M 0 6.863281 " fill-opacity="1" fill-rule="nonzero"/></g></g></g></g></g></g><g clip-path="url(#2ab2d69348)"><g clip-path="url(#57fc46d9ef)"><g transform="matrix(1, 0, 0, 1, 13, 16)"><g clip-path="url(#0a60f85a3d)"><g clip-path="url(#3252904b82)"><g clip-path="url(#54af87862f)"><path fill="#2c2a33" d="M 0.484375 6.863281 L 7.226562 0.121094 L 13.96875 6.863281 L 7.226562 13.605469 Z M 0.484375 6.863281 " fill-opacity="1" fill-rule="nonzero"/></g></g></g></g></g></g><g clip-path="url(#e269372700)"><g clip-path="url(#4beb11aa25)"><g transform="matrix(1, 0, 0, 1, 0, 31)"><g clip-path="url(#1b907400b1)"><g clip-path="url(#5d06696217)"><g clip-path="url(#f1ade519ca)"><path fill="#2c2a33" d="M 0 7.554688 L 6.742188 0.8125 L 13.484375 7.554688 L 6.742188 14.296875 Z M 0 7.554688 " fill-opacity="1" fill-rule="nonzero"/></g></g></g></g></g></g></svg>