<svg xmlns="http://www.w3.org/2000/svg" xmlns:xlink="http://www.w3.org/1999/xlink" width="55" zoomAndPan="magnify" viewBox="0 0 41.25 46.5" height="62" preserveAspectRatio="xMidYMid meet" version="1.0"><defs><clipPath id="2521c6d0ec"><path d="M 0 0.167969 L 14 0.167969 L 14 14 L 0 14 Z M 0 0.167969 " clip-rule="nonzero"/></clipPath><clipPath id="37e0457105"><path d="M 0 6.910156 L 6.742188 0.167969 L 13.484375 6.910156 L 6.742188 13.652344 Z M 0 6.910156 " clip-rule="nonzero"/></clipPath><clipPath id="35508da6d2"><path d="M 0 0.167969 L 13.671875 0.167969 L 13.671875 13.839844 L 0 13.839844 Z M 0 0.167969 " clip-rule="nonzero"/></clipPath><clipPath id="718d8ed90e"><path d="M 0 6.910156 L 6.742188 0.167969 L 13.484375 6.910156 L 6.742188 13.652344 Z M 0 6.910156 " clip-rule="nonzero"/></clipPath><clipPath id="aa03aa8cf4"><rect x="0" width="14" y="0" height="14"/></clipPath><clipPath id="ef9f7abcbd"><path d="M 13 0.167969 L 27 0.167969 L 27 14 L 13 14 Z M 13 0.167969 " clip-rule="nonzero"/></clipPath><clipPath id="62c31def03"><path d="M 13.484375 6.910156 L 20.226562 0.167969 L 26.96875 6.910156 L 20.226562 13.652344 Z M 13.484375 6.910156 " clip-rule="nonzero"/></clipPath><clipPath id="58064b6e99"><path d="M 0.4375 0.167969 L 14 0.167969 L 14 13.839844 L 0.4375 13.839844 Z M 0.4375 0.167969 " clip-rule="nonzero"/></clipPath><clipPath id="93897ac62c"><path d="M 0.484375 6.910156 L 7.226562 0.167969 L 13.96875 6.910156 L 7.226562 13.652344 Z M 0.484375 6.910156 " clip-rule="nonzero"/></clipPath><clipPath id="f29550019d"><rect x="0" width="14" y="0" height="14"/></clipPath><clipPath id="13aa28b4a1"><path d="M 26 0.167969 L 40.511719 0.167969 L 40.511719 14 L 26 14 Z M 26 0.167969 " clip-rule="nonzero"/></clipPath><clipPath id="a768c451f4"><path d="M 26.96875 6.910156 L 33.710938 0.167969 L 40.457031 6.910156 L 33.710938 13.652344 Z M 26.96875 6.910156 " clip-rule="nonzero"/></clipPath><clipPath id="860cea44d1"><path d="M 0.871094 0.167969 L 14.511719 0.167969 L 14.511719 13.839844 L 0.871094 13.839844 Z M 0.871094 0.167969 " clip-rule="nonzero"/></clipPath><clipPath id="954128f083"><path d="M 0.96875 6.910156 L 7.710938 0.167969 L 14.457031 6.910156 L 7.710938 13.652344 Z M 0.96875 6.910156 " clip-rule="nonzero"/></clipPath><clipPath id="fa4884c416"><rect x="0" width="15" y="0" height="14"/></clipPath><clipPath id="2fcc174e1a"><path d="M 0 16 L 14 16 L 14 30 L 0 30 Z M 0 16 " clip-rule="nonzero"/></clipPath><clipPath id="2d45f28216"><path d="M 0 22.863281 L 6.742188 16.121094 L 13.484375 22.863281 L 6.742188 29.605469 Z M 0 22.863281 " clip-rule="nonzero"/></clipPath><clipPath id="925af49285"><path d="M 0 0 L 13.671875 0 L 13.671875 13.632812 L 0 13.632812 Z M 0 0 " clip-rule="nonzero"/></clipPath><clipPath id="64e691b194"><path d="M 0 6.863281 L 6.742188 0.121094 L 13.484375 6.863281 L 6.742188 13.605469 Z M 0 6.863281 " clip-rule="nonzero"/></clipPath><clipPath id="8c70ab16d0"><rect x="0" width="14" y="0" height="14"/></clipPath><clipPath id="1d770cf03e"><path d="M 13 16 L 27 16 L 27 30 L 13 30 Z M 13 16 " clip-rule="nonzero"/></clipPath><clipPath id="96feb315a6"><path d="M 13.484375 22.863281 L 20.226562 16.121094 L 26.96875 22.863281 L 20.226562 29.605469 Z M 13.484375 22.863281 " clip-rule="nonzero"/></clipPath><clipPath id="350ba57d2e"><path d="M 0.4375 0 L 14 0 L 14 13.632812 L 0.4375 13.632812 Z M 0.4375 0 " clip-rule="nonzero"/></clipPath><clipPath id="4de8332881"><path d="M 0.484375 6.863281 L 7.226562 0.121094 L 13.96875 6.863281 L 7.226562 13.605469 Z M 0.484375 6.863281 " clip-rule="nonzero"/></clipPath><clipPath id="71d7b2ee31"><rect x="0" width="14" y="0" height="14"/></clipPath><clipPath id="5d92de217d"><path d="M 0 31 L 14 31 L 14 45.839844 L 0 45.839844 Z M 0 31 " clip-rule="nonzero"/></clipPath><clipPath id="c5dd06a566"><path d="M 0 38.554688 L 6.742188 31.8125 L 13.484375 38.554688 L 6.742188 45.296875 Z M 0 38.554688 " clip-rule="nonzero"/></clipPath><clipPath id="a97cdc6c52"><path d="M 0 0.753906 L 13.671875 0.753906 L 13.671875 14.425781 L 0 14.425781 Z M 0 0.753906 " clip-rule="nonzero"/></clipPath><clipPath id="83182b9e59"><path d="M 0 7.554688 L 6.742188 0.8125 L 13.484375 7.554688 L 6.742188 14.296875 Z M 0 7.554688 " clip-rule="nonzero"/></clipPath><clipPath id="8c64e33e18"><rect x="0" width="14" y="0" height="15"/></clipPath></defs><g clip-path="url(#2521c6d0ec)"><g clip-path="url(#37e0457105)"><g transform="matrix(1, 0, 0, 1, 0, -0.000000000000008132)"><g clip-path="url(#aa03aa8cf4)"><g clip-path="url(#35508da6d2)"><g clip-path="url(#718d8ed90e)"><path fill="#f6f4f0" d="M 0 6.910156 L 6.742188 0.167969 L 13.484375 6.910156 L 6.742188 13.652344 Z M 0 6.910156 " fill-opacity="1" fill-rule="nonzero"/></g></g></g></g></g></g><g clip-path="url(#ef9f7abcbd)"><g clip-path="url(#62c31def03)"><g transform="matrix(1, 0, 0, 1, 13, -0.000000000000008132)"><g clip-path="url(#f29550019d)"><g clip-path="url(#58064b6e99)"><g clip-path="url(#93897ac62c)"><path fill="#f6f4f0" d="M 0.484375 6.910156 L 7.226562 0.167969 L 13.96875 6.910156 L 7.226562 13.652344 Z M 0.484375 6.910156 " fill-opacity="1" fill-rule="nonzero"/></g></g></g></g></g></g><g clip-path="url(#13aa28b4a1)"><g clip-path="url(#a768c451f4)"><g transform="matrix(1, 0, 0, 1, 26, -0.000000000000008132)"><g clip-path="url(#fa4884c416)"><g clip-path="url(#860cea44d1)"><g clip-path="url(#954128f083)"><path fill="#f6f4f0" d="M 0.96875 6.910156 L 7.710938 0.167969 L 14.457031 6.910156 L 7.710938 13.652344 Z M 0.96875 6.910156 " fill-opacity="1" fill-rule="nonzero"/></g></g></g></g></g></g><g clip-path="url(#2fcc174e1a)"><g clip-path="url(#2d45f28216)"><g transform="matrix(1, 0, 0, 1, 0, 16)"><g clip-path="url(#8c70ab16d0)"><g clip-path="url(#925af49285)"><g clip-path="url(#64e691b194)"><path fill="#f6f4f0" d="M 0 6.863281 L 6.742188 0.121094 L 13.484375 6.863281 L 6.742188 13.605469 Z M 0 6.863281 " fill-opacity="1" fill-rule="nonzero"/></g></g></g></g></g></g><g clip-path="url(#1d770cf03e)"><g clip-path="url(#96feb315a6)"><g transform="matrix(1, 0, 0, 1, 13, 16)"><g clip-path="url(#71d7b2ee31)"><g clip-path="url(#350ba57d2e)"><g clip-path="url(#4de8332881)"><path fill="#f6f4f0" d="M 0.484375 6.863281 L 7.226562 0.121094 L 13.96875 6.863281 L 7.226562 13.605469 Z M 0.484375 6.863281 " fill-opacity="1" fill-rule="nonzero"/></g></g></g></g></g></g><g clip-path="url(#5d92de217d)"><g clip-path="url(#c5dd06a566)"><g transform="matrix(1, 0, 0, 1, 0, 31)"><g clip-path="url(#8c64e33e18)"><g clip-path="url(#a97cdc6c52)"><g clip-path="url(#83182b9e59)"><path fill="#f6f4f0" d="M 0 7.554688 L 6.742188 0.8125 L 13.484375 7.554688 L 6.742188 14.296875 Z M 0 7.554688 " fill-opacity="1" fill-rule="nonzero"/></g></g></g></g></g></g></svg>