<svg xmlns="http://www.w3.org/2000/svg" xmlns:xlink="http://www.w3.org/1999/xlink" width="47" zoomAndPan="magnify" viewBox="0 0 35.25 33.749999" height="45" preserveAspectRatio="xMidYMid meet" version="1.0"><defs><clipPath id="c151ef4d1b"><path d="M 0 0.230469 L 9.507812 0.230469 L 9.507812 9.734375 L 0 9.734375 Z M 0 0.230469 " clip-rule="nonzero"/></clipPath><clipPath id="cfb19b51ef"><path d="M 0 0.230469 L 9.507812 0.230469 L 9.507812 9.734375 L 0 9.734375 Z M 0 0.230469 " clip-rule="nonzero"/></clipPath><clipPath id="1dcd12cd9f"><rect x="0" width="10" y="0" height="10"/></clipPath><clipPath id="b06c3f1e2b"><path d="M 12.460938 0.230469 L 21.964844 0.230469 L 21.964844 9.734375 L 12.460938 9.734375 Z M 12.460938 0.230469 " clip-rule="nonzero"/></clipPath><clipPath id="08494b041e"><path d="M 0.460938 0.230469 L 9.964844 0.230469 L 9.964844 9.734375 L 0.460938 9.734375 Z M 0.460938 0.230469 " clip-rule="nonzero"/></clipPath><clipPath id="90de096aa2"><rect x="0" width="10" y="0" height="10"/></clipPath><clipPath id="1495c96549"><path d="M 24.917969 0.230469 L 34.425781 0.230469 L 34.425781 9.734375 L 24.917969 9.734375 Z M 24.917969 0.230469 " clip-rule="nonzero"/></clipPath><clipPath id="8201920682"><path d="M 0.917969 0.230469 L 10.425781 0.230469 L 10.425781 9.734375 L 0.917969 9.734375 Z M 0.917969 0.230469 " clip-rule="nonzero"/></clipPath><clipPath id="514aeb0ad0"><rect x="0" width="11" y="0" height="10"/></clipPath><clipPath id="e5390bcc53"><path d="M 12.460938 11.980469 L 21.964844 11.980469 L 21.964844 21.484375 L 12.460938 21.484375 Z M 12.460938 11.980469 " clip-rule="nonzero"/></clipPath><clipPath id="43c7a0831a"><path d="M 0.460938 0.980469 L 9.964844 0.980469 L 9.964844 10.484375 L 0.460938 10.484375 Z M 0.460938 0.980469 " clip-rule="nonzero"/></clipPath><clipPath id="6f4cd20ba5"><rect x="0" width="10" y="0" height="11"/></clipPath><clipPath id="b718f75779"><path d="M 0 11.980469 L 9.507812 11.980469 L 9.507812 21.484375 L 0 21.484375 Z M 0 11.980469 " clip-rule="nonzero"/></clipPath><clipPath id="e48c7e49a7"><path d="M 0 0.980469 L 9.507812 0.980469 L 9.507812 10.484375 L 0 10.484375 Z M 0 0.980469 " clip-rule="nonzero"/></clipPath><clipPath id="7bfbbd03ae"><rect x="0" width="10" y="0" height="11"/></clipPath><clipPath id="07d5319d93"><path d="M 0 23.6875 L 9.507812 23.6875 L 9.507812 33.195312 L 0 33.195312 Z M 0 23.6875 " clip-rule="nonzero"/></clipPath><clipPath id="91387fcaa0"><path d="M 0 0.6875 L 9.507812 0.6875 L 9.507812 10.195312 L 0 10.195312 Z M 0 0.6875 " clip-rule="nonzero"/></clipPath><clipPath id="2709a48ef5"><rect x="0" width="10" y="0" height="11"/></clipPath></defs><g clip-path="url(#c151ef4d1b)"><g transform="matrix(1, 0, 0, 1, 0, -0.000000000000003164)"><g clip-path="url(#1dcd12cd9f)"><g clip-path="url(#cfb19b51ef)"><path fill="#f6f4f0" d="M 0 0.230469 L 9.507812 0.230469 L 9.507812 9.734375 L 0 9.734375 Z M 0 0.230469 " fill-opacity="1" fill-rule="nonzero"/></g></g></g></g><g clip-path="url(#b06c3f1e2b)"><g transform="matrix(1, 0, 0, 1, 12, -0.000000000000003164)"><g clip-path="url(#90de096aa2)"><g clip-path="url(#08494b041e)"><path fill="#f6f4f0" d="M 0.460938 0.230469 L 9.964844 0.230469 L 9.964844 9.734375 L 0.460938 9.734375 Z M 0.460938 0.230469 " fill-opacity="1" fill-rule="nonzero"/></g></g></g></g><g clip-path="url(#1495c96549)"><g transform="matrix(1, 0, 0, 1, 24, -0.000000000000003164)"><g clip-path="url(#514aeb0ad0)"><g clip-path="url(#8201920682)"><path fill="#f6f4f0" d="M 0.917969 0.230469 L 10.425781 0.230469 L 10.425781 9.734375 L 0.917969 9.734375 Z M 0.917969 0.230469 " fill-opacity="1" fill-rule="nonzero"/></g></g></g></g><g clip-path="url(#e5390bcc53)"><g transform="matrix(1, 0, 0, 1, 12, 11)"><g clip-path="url(#6f4cd20ba5)"><g clip-path="url(#43c7a0831a)"><path fill="#f6f4f0" d="M 0.460938 0.980469 L 9.964844 0.980469 L 9.964844 10.484375 L 0.460938 10.484375 Z M 0.460938 0.980469 " fill-opacity="1" fill-rule="nonzero"/></g></g></g></g><g clip-path="url(#b718f75779)"><g transform="matrix(1, 0, 0, 1, 0, 11)"><g clip-path="url(#7bfbbd03ae)"><g clip-path="url(#e48c7e49a7)"><path fill="#f6f4f0" d="M 0 0.980469 L 9.507812 0.980469 L 9.507812 10.484375 L 0 10.484375 Z M 0 0.980469 " fill-opacity="1" fill-rule="nonzero"/></g></g></g></g><g clip-path="url(#07d5319d93)"><g transform="matrix(1, 0, 0, 1, 0, 23)"><g clip-path="url(#2709a48ef5)"><g clip-path="url(#91387fcaa0)"><path fill="#f6f4f0" d="M 0 0.6875 L 9.507812 0.6875 L 9.507812 10.195312 L 0 10.195312 Z M 0 0.6875 " fill-opacity="1" fill-rule="nonzero"/></g></g></g></g></svg>