<svg xmlns="http://www.w3.org/2000/svg" xmlns:xlink="http://www.w3.org/1999/xlink" width="800" zoomAndPan="magnify" viewBox="0 0 600 599.999999" height="800" preserveAspectRatio="xMidYMid meet" version="1.0"><defs><clipPath id="1a6b8aecbf"><path d="M 9.253906 9.253906 L 590.503906 9.253906 L 590.503906 590.503906 L 9.253906 590.503906 Z M 9.253906 9.253906 " clip-rule="nonzero"/></clipPath></defs><g clip-path="url(#1a6b8aecbf)"><path fill="#b2bf7b" d="M 126.359375 261.070312 C 172.878906 352.492188 247.664062 427.277344 339.25 473.796875 L 410.320312 402.566406 C 419.203125 393.679688 431.960938 391.097656 443.109375 394.652344 C 479.289062 406.601562 518.214844 413.0625 558.433594 413.0625 C 576.363281 413.0625 590.738281 427.441406 590.738281 445.367188 L 590.738281 558.433594 C 590.738281 576.363281 576.363281 590.738281 558.433594 590.738281 C 255.09375 590.738281 9.253906 344.902344 9.253906 41.558594 C 9.253906 23.632812 23.792969 9.253906 41.558594 9.253906 L 154.625 9.253906 C 172.554688 9.253906 186.929688 23.632812 186.929688 41.558594 C 186.929688 81.78125 193.390625 120.707031 205.34375 156.886719 C 208.898438 168.035156 206.3125 180.792969 197.429688 189.675781 Z M 126.359375 261.070312 " fill-opacity="1" fill-rule="nonzero"/></g></svg>