<svg xmlns="http://www.w3.org/2000/svg" xmlns:xlink="http://www.w3.org/1999/xlink" width="1080" zoomAndPan="magnify" viewBox="0 0 810 809.999993" height="1080" preserveAspectRatio="xMidYMid meet" version="1.0"><defs><clipPath id="e1911b5089"><path d="M 8.960938 8.960938 L 800.960938 8.960938 L 800.960938 800.960938 L 8.960938 800.960938 Z M 8.960938 8.960938 " clip-rule="nonzero"/></clipPath></defs><g clip-path="url(#e1911b5089)"><path fill="#62603b" d="M 168.472656 351.96875 C 231.839844 476.5 333.707031 578.371094 458.460938 641.738281 L 555.269531 544.707031 C 567.371094 532.605469 584.75 529.085938 599.933594 533.925781 C 649.21875 550.207031 702.242188 559.007812 757.027344 559.007812 C 781.449219 559.007812 801.03125 578.589844 801.03125 603.011719 L 801.03125 757.027344 C 801.03125 781.449219 781.449219 801.03125 757.027344 801.03125 C 343.828125 801.03125 8.960938 466.160156 8.960938 52.964844 C 8.960938 28.542969 28.761719 8.960938 52.964844 8.960938 L 206.976562 8.960938 C 231.398438 8.960938 250.980469 28.542969 250.980469 52.964844 C 250.980469 107.75 259.78125 160.773438 276.0625 210.058594 C 280.902344 225.238281 277.382812 242.621094 265.28125 254.722656 Z M 168.472656 351.96875 " fill-opacity="1" fill-rule="nonzero"/></g></svg>