<svg xmlns="http://www.w3.org/2000/svg" xmlns:xlink="http://www.w3.org/1999/xlink" width="39" zoomAndPan="magnify" viewBox="0 0 29.25 29.250001" height="39" preserveAspectRatio="xMidYMid meet" version="1.0"><defs><clipPath id="95ea3c1ff1"><path d="M 0 0 L 28.519531 0 L 28.519531 28.519531 L 0 28.519531 Z M 0 0 " clip-rule="nonzero"/></clipPath><clipPath id="d485660d44"><path d="M 9.464844 0 L 18.929688 0 L 18.929688 9.464844 L 9.464844 9.464844 Z M 9.464844 0 " clip-rule="nonzero"/></clipPath><clipPath id="acda85f3c9"><path d="M 0.464844 0 L 9.929688 0 L 9.929688 9.464844 L 0.464844 9.464844 Z M 0.464844 0 " clip-rule="nonzero"/></clipPath><clipPath id="cfe15027b7"><rect x="0" width="10" y="0" height="10"/></clipPath><clipPath id="368c08943d"><path d="M 18.929688 9.464844 L 28.398438 9.464844 L 28.398438 18.929688 L 18.929688 18.929688 Z M 18.929688 9.464844 " clip-rule="nonzero"/></clipPath><clipPath id="b91cd284aa"><path d="M 0.929688 0.464844 L 10.398438 0.464844 L 10.398438 9.929688 L 0.929688 9.929688 Z M 0.929688 0.464844 " clip-rule="nonzero"/></clipPath><clipPath id="9dee987efe"><rect x="0" width="11" y="0" height="10"/></clipPath><clipPath id="c14377fb5f"><path d="M 0 9.464844 L 9.464844 9.464844 L 9.464844 18.929688 L 0 18.929688 Z M 0 9.464844 " clip-rule="nonzero"/></clipPath><clipPath id="df351d4ab1"><path d="M 0 0.464844 L 9.464844 0.464844 L 9.464844 9.929688 L 0 9.929688 Z M 0 0.464844 " clip-rule="nonzero"/></clipPath><clipPath id="097589e80e"><rect x="0" width="10" y="0" height="10"/></clipPath><clipPath id="f8169ee256"><path d="M 9.464844 18.929688 L 18.929688 18.929688 L 18.929688 28.398438 L 9.464844 28.398438 Z M 9.464844 18.929688 " clip-rule="nonzero"/></clipPath><clipPath id="1aac2e7163"><path d="M 0.464844 0.929688 L 9.929688 0.929688 L 9.929688 10.398438 L 0.464844 10.398438 Z M 0.464844 0.929688 " clip-rule="nonzero"/></clipPath><clipPath id="c7b24860de"><rect x="0" width="10" y="0" height="11"/></clipPath><clipPath id="a84c237e12"><rect x="0" width="29" y="0" height="29"/></clipPath></defs><g clip-path="url(#95ea3c1ff1)"><g transform="matrix(1, 0, 0, 1, 0, 0.00000000000000069)"><g clip-path="url(#a84c237e12)"><g clip-path="url(#d485660d44)"><g transform="matrix(1, 0, 0, 1, 9, 0.00000000000000069)"><g clip-path="url(#cfe15027b7)"><g clip-path="url(#acda85f3c9)"><path fill="#f6f4f0" d="M 0.464844 0 L 9.929688 0 L 9.929688 9.464844 L 0.464844 9.464844 Z M 0.464844 0 " fill-opacity="1" fill-rule="nonzero"/></g></g></g></g><g clip-path="url(#368c08943d)"><g transform="matrix(1, 0, 0, 1, 18, 9)"><g clip-path="url(#9dee987efe)"><g clip-path="url(#b91cd284aa)"><path fill="#f6f4f0" d="M 0.929688 0.464844 L 10.398438 0.464844 L 10.398438 9.929688 L 0.929688 9.929688 Z M 0.929688 0.464844 " fill-opacity="1" fill-rule="nonzero"/></g></g></g></g><g clip-path="url(#c14377fb5f)"><g transform="matrix(1, 0, 0, 1, 0, 9)"><g clip-path="url(#097589e80e)"><g clip-path="url(#df351d4ab1)"><path fill="#f6f4f0" d="M 0 0.464844 L 9.464844 0.464844 L 9.464844 9.929688 L 0 9.929688 Z M 0 0.464844 " fill-opacity="1" fill-rule="nonzero"/></g></g></g></g><g clip-path="url(#f8169ee256)"><g transform="matrix(1, 0, 0, 1, 9, 18)"><g clip-path="url(#c7b24860de)"><g clip-path="url(#1aac2e7163)"><path fill="#f6f4f0" d="M 0.464844 0.929688 L 9.929688 0.929688 L 9.929688 10.398438 L 0.464844 10.398438 Z M 0.464844 0.929688 " fill-opacity="1" fill-rule="nonzero"/></g></g></g></g></g></g></g></svg>