<svg xmlns="http://www.w3.org/2000/svg" xmlns:xlink="http://www.w3.org/1999/xlink" width="39" zoomAndPan="magnify" viewBox="0 0 29.25 29.250001" height="39" preserveAspectRatio="xMidYMid meet" version="1.0"><defs><clipPath id="e21798581b"><path d="M 0 0 L 28.519531 0 L 28.519531 28.519531 L 0 28.519531 Z M 0 0 " clip-rule="nonzero"/></clipPath><clipPath id="520e2ca503"><path d="M 9.464844 0 L 18.929688 0 L 18.929688 9.464844 L 9.464844 9.464844 Z M 9.464844 0 " clip-rule="nonzero"/></clipPath><clipPath id="08951e19f5"><path d="M 0.464844 0 L 9.929688 0 L 9.929688 9.464844 L 0.464844 9.464844 Z M 0.464844 0 " clip-rule="nonzero"/></clipPath><clipPath id="ef18269e72"><rect x="0" width="10" y="0" height="10"/></clipPath><clipPath id="caf8570d44"><path d="M 18.929688 9.464844 L 28.398438 9.464844 L 28.398438 18.929688 L 18.929688 18.929688 Z M 18.929688 9.464844 " clip-rule="nonzero"/></clipPath><clipPath id="2297ad60ed"><path d="M 0.929688 0.464844 L 10.398438 0.464844 L 10.398438 9.929688 L 0.929688 9.929688 Z M 0.929688 0.464844 " clip-rule="nonzero"/></clipPath><clipPath id="ebdeb533ed"><rect x="0" width="11" y="0" height="10"/></clipPath><clipPath id="39394dfd76"><path d="M 0 9.464844 L 9.464844 9.464844 L 9.464844 18.929688 L 0 18.929688 Z M 0 9.464844 " clip-rule="nonzero"/></clipPath><clipPath id="3bb53803cf"><path d="M 0 0.464844 L 9.464844 0.464844 L 9.464844 9.929688 L 0 9.929688 Z M 0 0.464844 " clip-rule="nonzero"/></clipPath><clipPath id="12cab692cb"><rect x="0" width="10" y="0" height="10"/></clipPath><clipPath id="f4b904e925"><path d="M 9.464844 18.929688 L 18.929688 18.929688 L 18.929688 28.398438 L 9.464844 28.398438 Z M 9.464844 18.929688 " clip-rule="nonzero"/></clipPath><clipPath id="23b54ee25c"><path d="M 0.464844 0.929688 L 9.929688 0.929688 L 9.929688 10.398438 L 0.464844 10.398438 Z M 0.464844 0.929688 " clip-rule="nonzero"/></clipPath><clipPath id="2b1b207779"><rect x="0" width="10" y="0" height="11"/></clipPath><clipPath id="04019ae19f"><rect x="0" width="29" y="0" height="29"/></clipPath></defs><g clip-path="url(#e21798581b)"><g transform="matrix(1, 0, 0, 1, 0, 0.00000000000000069)"><g clip-path="url(#04019ae19f)"><g clip-path="url(#520e2ca503)"><g transform="matrix(1, 0, 0, 1, 9, 0.00000000000000069)"><g clip-path="url(#ef18269e72)"><g clip-path="url(#08951e19f5)"><path fill="#61263b" d="M 0.464844 0 L 9.929688 0 L 9.929688 9.464844 L 0.464844 9.464844 Z M 0.464844 0 " fill-opacity="1" fill-rule="nonzero"/></g></g></g></g><g clip-path="url(#caf8570d44)"><g transform="matrix(1, 0, 0, 1, 18, 9)"><g clip-path="url(#ebdeb533ed)"><g clip-path="url(#2297ad60ed)"><path fill="#61263b" d="M 0.929688 0.464844 L 10.398438 0.464844 L 10.398438 9.929688 L 0.929688 9.929688 Z M 0.929688 0.464844 " fill-opacity="1" fill-rule="nonzero"/></g></g></g></g><g clip-path="url(#39394dfd76)"><g transform="matrix(1, 0, 0, 1, 0, 9)"><g clip-path="url(#12cab692cb)"><g clip-path="url(#3bb53803cf)"><path fill="#61263b" d="M 0 0.464844 L 9.464844 0.464844 L 9.464844 9.929688 L 0 9.929688 Z M 0 0.464844 " fill-opacity="1" fill-rule="nonzero"/></g></g></g></g><g clip-path="url(#f4b904e925)"><g transform="matrix(1, 0, 0, 1, 9, 18)"><g clip-path="url(#2b1b207779)"><g clip-path="url(#23b54ee25c)"><path fill="#61263b" d="M 0.464844 0.929688 L 9.929688 0.929688 L 9.929688 10.398438 L 0.464844 10.398438 Z M 0.464844 0.929688 " fill-opacity="1" fill-rule="nonzero"/></g></g></g></g></g></g></g></svg>