<svg xmlns="http://www.w3.org/2000/svg" xmlns:xlink="http://www.w3.org/1999/xlink" width="39" zoomAndPan="magnify" viewBox="0 0 29.25 29.250001" height="39" preserveAspectRatio="xMidYMid meet" version="1.0"><defs><clipPath id="7c7f94679e"><path d="M 0 0 L 28.519531 0 L 28.519531 28.519531 L 0 28.519531 Z M 0 0 " clip-rule="nonzero"/></clipPath><clipPath id="4261e34a1e"><path d="M 9.464844 0 L 18.929688 0 L 18.929688 9.464844 L 9.464844 9.464844 Z M 9.464844 0 " clip-rule="nonzero"/></clipPath><clipPath id="6351aaf23d"><path d="M 0.464844 0 L 9.929688 0 L 9.929688 9.464844 L 0.464844 9.464844 Z M 0.464844 0 " clip-rule="nonzero"/></clipPath><clipPath id="314722e1f7"><rect x="0" width="10" y="0" height="10"/></clipPath><clipPath id="506fbec313"><path d="M 18.929688 9.464844 L 28.398438 9.464844 L 28.398438 18.929688 L 18.929688 18.929688 Z M 18.929688 9.464844 " clip-rule="nonzero"/></clipPath><clipPath id="b976fa48b4"><path d="M 0.929688 0.464844 L 10.398438 0.464844 L 10.398438 9.929688 L 0.929688 9.929688 Z M 0.929688 0.464844 " clip-rule="nonzero"/></clipPath><clipPath id="817b5d6a86"><rect x="0" width="11" y="0" height="10"/></clipPath><clipPath id="182dbd4ade"><path d="M 0 9.464844 L 9.464844 9.464844 L 9.464844 18.929688 L 0 18.929688 Z M 0 9.464844 " clip-rule="nonzero"/></clipPath><clipPath id="0fb267f60a"><path d="M 0 0.464844 L 9.464844 0.464844 L 9.464844 9.929688 L 0 9.929688 Z M 0 0.464844 " clip-rule="nonzero"/></clipPath><clipPath id="c0a4f96b8f"><rect x="0" width="10" y="0" height="10"/></clipPath><clipPath id="28d8aced19"><path d="M 9.464844 18.929688 L 18.929688 18.929688 L 18.929688 28.398438 L 9.464844 28.398438 Z M 9.464844 18.929688 " clip-rule="nonzero"/></clipPath><clipPath id="a75b8626f1"><path d="M 0.464844 0.929688 L 9.929688 0.929688 L 9.929688 10.398438 L 0.464844 10.398438 Z M 0.464844 0.929688 " clip-rule="nonzero"/></clipPath><clipPath id="a5ba6caf79"><rect x="0" width="10" y="0" height="11"/></clipPath><clipPath id="fa2dbc1e8f"><rect x="0" width="29" y="0" height="29"/></clipPath></defs><g clip-path="url(#7c7f94679e)"><g transform="matrix(1, 0, 0, 1, 0, 0.00000000000000069)"><g clip-path="url(#fa2dbc1e8f)"><g clip-path="url(#4261e34a1e)"><g transform="matrix(1, 0, 0, 1, 9, 0.00000000000000069)"><g clip-path="url(#314722e1f7)"><g clip-path="url(#6351aaf23d)"><path fill="#853c50" d="M 0.464844 0 L 9.929688 0 L 9.929688 9.464844 L 0.464844 9.464844 Z M 0.464844 0 " fill-opacity="1" fill-rule="nonzero"/></g></g></g></g><g clip-path="url(#506fbec313)"><g transform="matrix(1, 0, 0, 1, 18, 9)"><g clip-path="url(#817b5d6a86)"><g clip-path="url(#b976fa48b4)"><path fill="#853c50" d="M 0.929688 0.464844 L 10.398438 0.464844 L 10.398438 9.929688 L 0.929688 9.929688 Z M 0.929688 0.464844 " fill-opacity="1" fill-rule="nonzero"/></g></g></g></g><g clip-path="url(#182dbd4ade)"><g transform="matrix(1, 0, 0, 1, 0, 9)"><g clip-path="url(#c0a4f96b8f)"><g clip-path="url(#0fb267f60a)"><path fill="#853c50" d="M 0 0.464844 L 9.464844 0.464844 L 9.464844 9.929688 L 0 9.929688 Z M 0 0.464844 " fill-opacity="1" fill-rule="nonzero"/></g></g></g></g><g clip-path="url(#28d8aced19)"><g transform="matrix(1, 0, 0, 1, 9, 18)"><g clip-path="url(#a5ba6caf79)"><g clip-path="url(#a75b8626f1)"><path fill="#853c50" d="M 0.464844 0.929688 L 9.929688 0.929688 L 9.929688 10.398438 L 0.464844 10.398438 Z M 0.464844 0.929688 " fill-opacity="1" fill-rule="nonzero"/></g></g></g></g></g></g></g></svg>